<svg width="657.9px" height="122px" xmlns="http://www.w3.org/2000/svg" viewBox="-78.94687499999998 14 657.89375 122" style="background: rgba(0, 0, 0, 0)" preserveAspectRatio="xMidYMid"><defs><linearGradient id="editing-gradient-gradient" x1="0" x2="1" y1="0.5" y2="0.5" gradientUnits="objectBoundingBox"><stop offset="0" stop-color="#139292"></stop><stop offset="1" stop-color="#ea37ea"></stop></linearGradient></defs><g><g transform="matrix(1.3,0,0,1.4,-48.9,161.8)"><path d="M 8.2 -44.2 L -5.8 -44.2 L 2.3 -86.5 L 16.4 -86.5 L 8.2 -44.2 Z M 63.9 -43 L 63.9 -43 L 63.9 -43 Q 56.2 -43 56.2 -49 L 56.2 -49 L 56.2 -49 Q 56.2 -51.6 57.3 -56.7 L 57.3 -56.7 L 57.3 -56.7 Q 58.4 -61.8 58.8 -63.8 L 58.8 -63.8 L 58.8 -63.8 Q 59.7 -68.5 59.7 -70 L 59.7 -70 L 59.7 -70 Q 59.7 -73.2 57.2 -73.2 L 57.2 -73.2 L 57.2 -73.2 Q 55.6 -73.2 54.1 -71 L 54.1 -71 L 54.1 -71 Q 52.6 -68.8 51.9 -64.4 L 51.9 -64.4 L 47.9 -44.2 L 35.4 -43 L 38.9 -60.4 L 38.9 -60.4 Q 39.5 -63.2 40 -66.5 L 40 -66.5 L 40 -66.5 Q 40.5 -69.8 40.5 -70.3 L 40.5 -70.3 L 40.5 -70.3 Q 40.5 -73.2 38.3 -73.2 L 38.3 -73.2 L 38.3 -73.2 Q 36.8 -73.2 35.2 -71.1 L 35.2 -71.1 L 35.2 -71.1 Q 33.6 -68.9 32.7 -64.4 L 32.7 -64.4 L 28.8 -44.2 L 16.2 -43 L 22.9 -76.9 L 33.4 -78.2 L 32.3 -71.7 L 32.3 -71.7 Q 34 -75.1 37 -76.7 L 37 -76.7 L 37 -76.7 Q 40.1 -78.2 44.9 -78.2 L 44.9 -78.2 L 44.9 -78.2 Q 47.6 -78.2 49.4 -76.8 L 49.4 -76.8 L 49.4 -76.8 Q 51.2 -75.5 51.8 -73.3 L 51.8 -73.3 L 51.8 -73.3 Q 52.9 -75.5 55.7 -76.8 L 55.7 -76.8 L 55.7 -76.8 Q 58.5 -78.2 61.9 -78.2 L 61.9 -78.2 L 61.9 -78.2 Q 65.3 -78.2 67 -77.4 L 67 -77.4 L 67 -77.4 Q 68.7 -76.7 69.7 -75.5 L 69.7 -75.5 L 69.7 -75.5 Q 71.5 -73.2 71.5 -69.1 L 71.5 -69.1 L 71.5 -69.1 Q 71.5 -65.1 69.7 -56.7 L 69.7 -56.7 L 69.7 -56.7 Q 68.8 -52.6 68.8 -51.1 L 68.8 -51.1 L 68.8 -51.1 Q 68.8 -49.6 69.7 -48.7 L 69.7 -48.7 L 69.7 -48.7 Q 70.6 -47.8 71.8 -47.7 L 71.8 -47.7 L 71.8 -47.7 Q 71.2 -45.5 69 -44.2 L 69 -44.2 L 69 -44.2 Q 66.8 -43 63.9 -43 Z M 79.6 -46.2 L 79.6 -46.2 L 79.6 -46.2 Q 78 -47.8 77.4 -50.4 L 77.4 -50.4 L 77.4 -50.4 Q 76.7 -53.1 76.7 -57.4 L 76.7 -57.4 L 76.7 -57.4 Q 76.7 -61.6 78.2 -65.5 L 78.2 -65.5 L 78.2 -65.5 Q 79.6 -69.5 82.3 -72.3 L 82.3 -72.3 L 82.3 -72.3 Q 87.8 -78.2 96.9 -78.2 L 96.9 -78.2 L 96.9 -78.2 Q 100.2 -78.2 102.6 -77.1 L 102.6 -77.1 L 113.5 -78.2 L 108.8 -53.2 L 108.8 -53.2 Q 108.6 -52.4 108.6 -51 L 108.6 -51 L 108.6 -51 Q 108.6 -49.6 109.4 -48.7 L 109.4 -48.7 L 109.4 -48.7 Q 110.3 -47.8 111.6 -47.7 L 111.6 -47.7 L 111.6 -47.7 Q 110.9 -45.5 108.6 -44.2 L 108.6 -44.2 L 108.6 -44.2 Q 106.3 -43 103.6 -43 L 103.6 -43 L 103.6 -43 Q 101 -43 99.3 -43.9 L 99.3 -43.9 L 99.3 -43.9 Q 97.5 -44.9 97 -46.6 L 97 -46.6 L 97 -46.6 Q 96 -45 93.8 -44 L 93.8 -44 L 93.8 -44 Q 91.6 -43 88.7 -43 L 88.7 -43 L 88.7 -43 Q 85.8 -43 83.4 -43.7 L 83.4 -43.7 L 83.4 -43.7 Q 81.1 -44.5 79.6 -46.2 Z M 93.1 -72.1 L 93.1 -72.1 L 93.1 -72.1 Q 92.3 -71 91.7 -69 L 91.7 -69 L 91.7 -69 Q 91 -67.1 90 -61.9 L 90 -61.9 L 90 -61.9 Q 88.9 -56.7 88.9 -52.9 L 88.9 -52.9 L 88.9 -52.9 Q 88.9 -49.2 89.5 -48.1 L 89.5 -48.1 L 89.5 -48.1 Q 90.1 -47.1 91.1 -47.1 L 91.1 -47.1 L 91.1 -47.1 Q 93.2 -47.1 94.7 -49 L 94.7 -49 L 94.7 -49 Q 96.2 -51 96.7 -54.4 L 96.7 -54.4 L 100.1 -73.2 L 100.1 -73.2 Q 98.8 -74.3 97.2 -74.3 L 97.2 -74.3 L 97.2 -74.3 Q 95.6 -74.3 94.7 -73.8 L 94.7 -73.8 L 94.7 -73.8 Q 93.8 -73.3 93.1 -72.1 Z M 121.2 -71 L 121.2 -71 L 121.2 -71 Q 123.4 -74.1 126.7 -76.1 L 126.7 -76.1 L 126.7 -76.1 Q 130 -78.2 134 -78.2 L 134 -78.2 L 134 -78.2 Q 138.1 -78.2 140 -76.9 L 140 -76.9 L 152.5 -78.2 L 148.2 -53.6 L 148.2 -53.6 Q 146 -41 141.2 -36.1 L 141.2 -36.1 L 141.2 -36.1 Q 136.7 -31.4 127.8 -31.4 L 127.8 -31.4 L 127.8 -31.4 Q 121.1 -31.4 117.3 -33.5 L 117.3 -33.5 L 117.3 -33.5 Q 113.4 -35.7 113.4 -39.2 L 113.4 -39.2 L 113.4 -39.2 Q 113.4 -41.8 115.4 -43.3 L 115.4 -43.3 L 115.4 -43.3 Q 117.4 -44.8 120.5 -44.8 L 120.5 -44.8 L 120.5 -44.8 Q 123.2 -44.8 125.2 -43.6 L 125.2 -43.6 L 125.2 -43.6 Q 126.4 -43 127 -42.1 L 127 -42.1 L 127 -42.1 Q 125.5 -40.8 125.5 -38.7 L 125.5 -38.7 L 125.5 -38.7 Q 125.5 -35.9 128.1 -35.9 L 128.1 -35.9 L 128.1 -35.9 Q 132.4 -35.9 134.8 -46 L 134.8 -46 L 134.8 -46 Q 135.5 -48.8 136.1 -51.5 L 136.1 -51.5 L 136.1 -51.5 Q 133.2 -48 126.7 -48 L 126.7 -48 L 126.7 -48 Q 122.1 -48 119.5 -50.2 L 119.5 -50.2 L 119.5 -50.2 Q 116.9 -52.4 116.9 -57.5 L 116.9 -57.5 L 116.9 -57.5 Q 116.9 -60.7 118 -64.3 L 118 -64.3 L 118 -64.3 Q 119.1 -67.9 121.2 -71 Z M 129.6 -57.3 L 129.6 -57.3 L 129.6 -57.3 Q 129.6 -52.9 131.8 -52.9 L 131.8 -52.9 L 131.8 -52.9 Q 133.3 -52.9 134.8 -54.6 L 134.8 -54.6 L 134.8 -54.6 Q 136 -55.9 136.4 -57.9 L 136.4 -57.9 L 139.7 -74.4 L 139.7 -74.4 Q 139.4 -74.4 139 -74.6 L 139 -74.6 L 139 -74.6 Q 138.4 -74.8 137.6 -74.8 L 137.6 -74.8 L 137.6 -74.8 Q 133.7 -74.8 131.4 -68.4 L 131.4 -68.4 L 131.4 -68.4 Q 129.6 -63.4 129.6 -57.3 Z M 181 -55.1 L 181 -55.1 L 181 -55.1 Q 182.6 -54 182.6 -51.6 L 182.6 -51.6 L 182.6 -51.6 Q 182.6 -49.2 181.3 -47.6 L 181.3 -47.6 L 181.3 -47.6 Q 180.1 -46.1 178.1 -45.1 L 178.1 -45.1 L 178.1 -45.1 Q 174 -43 169.6 -43 L 169.6 -43 L 169.6 -43 Q 165.2 -43 162.6 -43.9 L 162.6 -43.9 L 162.6 -43.9 Q 160 -44.9 158.3 -46.7 L 158.3 -46.7 L 158.3 -46.7 Q 154.9 -50.1 154.9 -56.3 L 154.9 -56.3 L 154.9 -56.3 Q 154.9 -65.9 160.2 -71.8 L 160.2 -71.8 L 160.2 -71.8 Q 165.8 -78.2 175.6 -78.2 L 175.6 -78.2 L 175.6 -78.2 Q 181.7 -78.2 184.7 -75.6 L 184.7 -75.6 L 184.7 -75.6 Q 186.9 -73.7 186.9 -70.5 L 186.9 -70.5 L 186.9 -70.5 Q 186.9 -59.3 167.5 -59.3 L 167.5 -59.3 L 167.5 -59.3 Q 167.2 -57.6 167.2 -56.2 L 167.2 -56.2 L 167.2 -56.2 Q 167.2 -53.3 168.5 -52.1 L 168.5 -52.1 L 168.5 -52.1 Q 169.8 -51 172.3 -51 L 172.3 -51 L 172.3 -51 Q 174.7 -51 177.3 -52.1 L 177.3 -52.1 L 177.3 -52.1 Q 179.9 -53.3 181 -55.1 Z M 167.9 -62 L 167.9 -62 L 167.9 -62 Q 172.4 -62 175.1 -64.8 L 175.1 -64.8 L 175.1 -64.8 Q 177.7 -67.5 177.7 -71.8 L 177.7 -71.8 L 177.7 -71.8 Q 177.7 -73.3 177.2 -74.1 L 177.2 -74.1 L 177.2 -74.1 Q 176.6 -74.9 175.5 -74.9 L 175.5 -74.9 L 175.5 -74.9 Q 174.4 -74.9 173.5 -74.5 L 173.5 -74.5 L 173.5 -74.5 Q 172.6 -74.1 171.6 -72.7 L 171.6 -72.7 L 171.6 -72.7 Q 169.2 -69.5 167.9 -62 Z M 208.2 -66.7 L 208.2 -66.7 L 208.2 -66.7 Q 209.1 -69.1 209.1 -71.1 L 209.1 -71.1 L 209.1 -71.1 Q 209.1 -74.9 206 -74.9 L 206 -74.9 L 206 -74.9 Q 204.4 -74.9 203.1 -73.5 L 203.1 -73.5 L 203.1 -73.5 Q 201.8 -72 201.8 -70.2 L 201.8 -70.2 L 201.8 -70.2 Q 201.8 -68.9 202.8 -67.9 L 202.8 -67.9 L 202.8 -67.9 Q 204.3 -66.5 208.1 -64.2 L 208.1 -64.2 L 208.1 -64.2 Q 211.9 -61.9 213.3 -60 L 213.3 -60 L 213.3 -60 Q 214.8 -58.1 214.8 -55.5 L 214.8 -55.5 L 214.8 -55.5 Q 214.8 -52.9 213.5 -50.6 L 213.5 -50.6 L 213.5 -50.6 Q 212.3 -48.2 210 -46.5 L 210 -46.5 L 210 -46.5 Q 205.2 -43 197.5 -43 L 197.5 -43 L 197.5 -43 Q 193.4 -43 190.2 -45.1 L 190.2 -45.1 L 190.2 -45.1 Q 187 -47.2 187 -49.7 L 187 -49.7 L 187 -49.7 Q 187 -52.2 188.8 -53.7 L 188.8 -53.7 L 188.8 -53.7 Q 190.6 -55.2 193.3 -55.2 L 193.3 -55.2 L 193.3 -55.2 Q 196 -55.2 197.7 -54.2 L 197.7 -54.2 L 197.7 -54.2 Q 196.8 -52 196.8 -50.6 L 196.8 -50.6 L 196.8 -50.6 Q 196.8 -46.4 200.4 -46.4 L 200.4 -46.4 L 200.4 -46.4 Q 202 -46.4 203 -47.4 L 203 -47.4 L 203 -47.4 Q 204 -48.3 204 -50 L 204 -50 L 204 -50 Q 204 -53.3 198.5 -56.7 L 198.5 -56.7 L 198.5 -56.7 Q 194 -59.7 193 -60.8 L 193 -60.8 L 193 -60.8 Q 191.3 -62.9 191.3 -65.4 L 191.3 -65.4 L 191.3 -65.4 Q 191.3 -68 192.5 -70.4 L 192.5 -70.4 L 192.5 -70.4 Q 193.7 -72.8 195.9 -74.6 L 195.9 -74.6 L 195.9 -74.6 Q 200.6 -78.2 208.7 -78.2 L 208.7 -78.2 L 208.7 -78.2 Q 212.9 -78.2 215.4 -76.5 L 215.4 -76.5 L 215.4 -76.5 Q 217.8 -74.8 217.8 -72 L 217.8 -72 L 217.8 -72 Q 217.8 -69.2 216.1 -67.6 L 216.1 -67.6 L 216.1 -67.6 Q 214.4 -66 211.4 -66 L 211.4 -66 L 211.4 -66 Q 209.2 -66 208.2 -66.7 Z M 259.3 -64.8 L 272.2 -66 L 272.2 -66 Q 267.6 -55.9 267.6 -44.2 L 267.6 -44.2 L 267.6 -44.2 Q 265.9 -43 263.4 -43 L 263.4 -43 L 263.4 -43 Q 260.8 -43 259.2 -44.1 L 259.2 -44.1 L 259.2 -44.1 Q 257.6 -45.3 257.3 -46.5 L 257.3 -46.5 L 257.3 -46.5 Q 255.7 -44.9 253.1 -43.9 L 253.1 -43.9 L 253.1 -43.9 Q 250.5 -43 247.8 -43 L 247.8 -43 L 247.8 -43 Q 245 -43 242.6 -43.9 L 242.6 -43.9 L 242.6 -43.9 Q 240.2 -44.7 238.4 -46.7 L 238.4 -46.7 L 238.4 -46.7 Q 234.3 -51.1 234.3 -59.3 L 234.3 -59.3 L 234.3 -59.3 Q 234.3 -72.1 241.1 -79.8 L 241.1 -79.8 L 241.1 -79.8 Q 248.2 -87.8 260.6 -87.8 L 260.6 -87.8 L 260.6 -87.8 Q 269.3 -87.8 272.4 -83.3 L 272.4 -83.3 L 272.4 -83.3 Q 273.3 -81.9 273.3 -80.2 L 273.3 -80.2 L 273.3 -80.2 Q 273.3 -78.5 272.6 -77 L 272.6 -77 L 272.6 -77 Q 271.8 -75.6 270.7 -74.4 L 270.7 -74.4 L 270.7 -74.4 Q 267.9 -71.9 264.5 -71.9 L 264.5 -71.9 L 264.5 -71.9 Q 263.2 -71.9 261.9 -72.3 L 261.9 -72.3 L 261.9 -72.3 Q 262.2 -74.3 262.2 -76.5 L 262.2 -76.5 L 262.2 -76.5 Q 262.2 -78.7 262 -79.8 L 262 -79.8 L 262 -79.8 Q 261.9 -80.8 261.5 -81.6 L 261.5 -81.6 L 261.5 -81.6 Q 260.6 -83.3 258.8 -83.3 L 258.8 -83.3 L 258.8 -83.3 Q 257 -83.3 255 -81.4 L 255 -81.4 L 255 -81.4 Q 253 -79.4 251.4 -76.2 L 251.4 -76.2 L 251.4 -76.2 Q 247.8 -69.1 247.8 -60.4 L 247.8 -60.4 L 247.8 -60.4 Q 247.8 -56.5 249.4 -53.6 L 249.4 -53.6 L 249.4 -53.6 Q 251 -50.6 254 -50.6 L 254 -50.6 L 254 -50.6 Q 255 -50.6 255.9 -51.1 L 255.9 -51.1 L 255.9 -51.1 Q 256.9 -51.6 257.2 -52 L 257.2 -52 L 259.3 -64.8 Z M 278.1 -46.2 L 278.1 -46.2 L 278.1 -46.2 Q 276.6 -47.8 276 -50.4 L 276 -50.4 L 276 -50.4 Q 275.3 -53.1 275.3 -57.4 L 275.3 -57.4 L 275.3 -57.4 Q 275.3 -61.6 276.8 -65.5 L 276.8 -65.5 L 276.8 -65.5 Q 278.2 -69.5 280.9 -72.3 L 280.9 -72.3 L 280.9 -72.3 Q 286.4 -78.2 295.5 -78.2 L 295.5 -78.2 L 295.5 -78.2 Q 298.8 -78.2 301.2 -77.1 L 301.2 -77.1 L 312.1 -78.2 L 307.4 -53.2 L 307.4 -53.2 Q 307.2 -52.4 307.2 -51 L 307.2 -51 L 307.2 -51 Q 307.2 -49.6 308 -48.7 L 308 -48.7 L 308 -48.7 Q 308.9 -47.8 310.2 -47.7 L 310.2 -47.7 L 310.2 -47.7 Q 309.5 -45.5 307.2 -44.2 L 307.2 -44.2 L 307.2 -44.2 Q 304.9 -43 302.2 -43 L 302.2 -43 L 302.2 -43 Q 299.6 -43 297.9 -43.9 L 297.9 -43.9 L 297.9 -43.9 Q 296.1 -44.9 295.6 -46.6 L 295.6 -46.6 L 295.6 -46.6 Q 294.6 -45 292.4 -44 L 292.4 -44 L 292.4 -44 Q 290.2 -43 287.3 -43 L 287.3 -43 L 287.3 -43 Q 284.4 -43 282 -43.7 L 282 -43.7 L 282 -43.7 Q 279.6 -44.5 278.1 -46.2 Z M 291.6 -72.1 L 291.6 -72.1 L 291.6 -72.1 Q 290.9 -71 290.3 -69 L 290.3 -69 L 290.3 -69 Q 289.6 -67.1 288.6 -61.9 L 288.6 -61.9 L 288.6 -61.9 Q 287.5 -56.7 287.5 -52.9 L 287.5 -52.9 L 287.5 -52.9 Q 287.5 -49.2 288.1 -48.1 L 288.1 -48.1 L 288.1 -48.1 Q 288.7 -47.1 289.7 -47.1 L 289.7 -47.1 L 289.7 -47.1 Q 291.7 -47.1 293.2 -49 L 293.2 -49 L 293.2 -49 Q 294.8 -51 295.3 -54.4 L 295.3 -54.4 L 298.7 -73.2 L 298.7 -73.2 Q 297.4 -74.3 295.8 -74.3 L 295.8 -74.3 L 295.8 -74.3 Q 294.2 -74.3 293.3 -73.8 L 293.3 -73.8 L 293.3 -73.8 Q 292.4 -73.3 291.6 -72.1 Z M 330.8 -47.8 L 330.8 -47.8 L 330.8 -47.8 Q 328.9 -43 322.5 -43 L 322.5 -43 L 322.5 -43 Q 319.3 -43 317.3 -45.2 L 317.3 -45.2 L 317.3 -45.2 Q 315.6 -47.1 315.6 -49.2 L 315.6 -49.2 L 315.6 -49.2 Q 315.6 -54 317.9 -64.5 L 317.9 -64.5 L 322.5 -89 L 335.5 -90.3 L 329.3 -57.9 L 329.3 -57.9 Q 328.2 -53.2 328.2 -51.5 L 328.2 -51.5 L 328.2 -51.5 Q 328.2 -47.9 330.8 -47.8 Z M 351.6 -47.8 L 351.6 -47.8 L 351.6 -47.8 Q 349.6 -43 343.3 -43 L 343.3 -43 L 343.3 -43 Q 340.1 -43 338 -45.2 L 338 -45.2 L 338 -45.2 Q 336.4 -47.1 336.4 -49.2 L 336.4 -49.2 L 336.4 -49.2 Q 336.4 -54 338.6 -64.5 L 338.6 -64.5 L 343.3 -89 L 356.3 -90.3 L 350 -57.9 L 350 -57.9 Q 349 -53.2 349 -51.5 L 349 -51.5 L 349 -51.5 Q 349 -47.9 351.6 -47.8 Z M 382.9 -55.1 L 382.9 -55.1 L 382.9 -55.1 Q 384.5 -54 384.5 -51.6 L 384.5 -51.6 L 384.5 -51.6 Q 384.5 -49.2 383.3 -47.6 L 383.3 -47.6 L 383.3 -47.6 Q 382.1 -46.1 380.1 -45.1 L 380.1 -45.1 L 380.1 -45.1 Q 376 -43 371.6 -43 L 371.6 -43 L 371.6 -43 Q 367.2 -43 364.6 -43.9 L 364.6 -43.9 L 364.6 -43.9 Q 362 -44.9 360.3 -46.7 L 360.3 -46.7 L 360.3 -46.7 Q 356.9 -50.1 356.9 -56.3 L 356.9 -56.3 L 356.9 -56.3 Q 356.9 -65.9 362.1 -71.8 L 362.1 -71.8 L 362.1 -71.8 Q 367.8 -78.2 377.6 -78.2 L 377.6 -78.2 L 377.6 -78.2 Q 383.6 -78.2 386.7 -75.6 L 386.7 -75.6 L 386.7 -75.6 Q 388.9 -73.7 388.9 -70.5 L 388.9 -70.5 L 388.9 -70.5 Q 388.9 -59.3 369.4 -59.3 L 369.4 -59.3 L 369.4 -59.3 Q 369.2 -57.6 369.2 -56.2 L 369.2 -56.2 L 369.2 -56.2 Q 369.2 -53.3 370.5 -52.1 L 370.5 -52.1 L 370.5 -52.1 Q 371.8 -51 374.2 -51 L 374.2 -51 L 374.2 -51 Q 376.7 -51 379.3 -52.1 L 379.3 -52.1 L 379.3 -52.1 Q 381.9 -53.3 382.9 -55.1 Z M 369.9 -62 L 369.9 -62 L 369.9 -62 Q 374.4 -62 377.1 -64.8 L 377.1 -64.8 L 377.1 -64.8 Q 379.7 -67.5 379.7 -71.8 L 379.7 -71.8 L 379.7 -71.8 Q 379.7 -73.3 379.1 -74.1 L 379.1 -74.1 L 379.1 -74.1 Q 378.6 -74.9 377.5 -74.9 L 377.5 -74.9 L 377.5 -74.9 Q 376.4 -74.9 375.5 -74.5 L 375.5 -74.5 L 375.5 -74.5 Q 374.6 -74.1 373.6 -72.7 L 373.6 -72.7 L 373.6 -72.7 Q 371.2 -69.5 369.9 -62 Z M 411.1 -62.2 L 411.1 -62.2 L 411.1 -62.2 Q 413.4 -66.3 413.4 -70.5 L 413.4 -70.5 L 413.4 -70.5 Q 413.4 -73.2 411.4 -73.2 L 411.4 -73.2 L 411.4 -73.2 Q 409.9 -73.2 408.3 -70.6 L 408.3 -70.6 L 408.3 -70.6 Q 406.6 -68 406.1 -64.6 L 406.1 -64.6 L 402.8 -44.2 L 389.5 -43 L 396.1 -76.9 L 406.6 -78.2 L 405.5 -71.7 L 405.5 -71.7 Q 408.6 -78.2 415.6 -78.2 L 415.6 -78.2 L 415.6 -78.2 Q 419.4 -78.2 421.4 -76.2 L 421.4 -76.2 L 421.4 -76.2 Q 423.4 -74.3 423.4 -70.4 L 423.4 -70.4 L 423.4 -70.4 Q 423.4 -66.4 420.8 -63.9 L 420.8 -63.9 L 420.8 -63.9 Q 418.2 -61.5 413.8 -61.5 L 413.8 -61.5 L 413.8 -61.5 Q 411.9 -61.5 411.1 -62.2 Z M 444.8 -51.5 L 444.8 -51.5 L 444.8 -51.5 Q 441.4 -48 435.4 -48 L 435.4 -48 L 435.4 -48 Q 427.7 -48 426.1 -53.6 L 426.1 -53.6 L 426.1 -53.6 Q 425.6 -55.2 425.6 -57.1 L 425.6 -57.1 L 425.6 -57.1 Q 425.6 -59 426 -60.9 L 426 -60.9 L 429 -76.9 L 442 -78.2 L 438.5 -59.5 L 438.5 -59.5 Q 438.4 -58.7 438.2 -57.8 L 438.2 -57.8 L 438.2 -57.8 Q 438 -56.9 438 -56 L 438 -56 L 438 -56 Q 438 -55.1 438.3 -54.4 L 438.3 -54.4 L 438.3 -54.4 Q 438.6 -53.8 439.1 -53.5 L 439.1 -53.5 L 439.1 -53.5 Q 439.8 -52.9 441.2 -52.9 L 441.2 -52.9 L 441.2 -52.9 Q 442.6 -52.9 443.8 -54.6 L 443.8 -54.6 L 443.8 -54.6 Q 445 -56.3 445.5 -59.1 L 445.5 -59.1 L 449.1 -76.9 L 461.7 -78.2 L 456.9 -53 L 456.9 -53 Q 454.5 -40.7 449.6 -35.9 L 449.6 -35.9 L 449.6 -35.9 Q 447.1 -33.4 443.9 -32.4 L 443.9 -32.4 L 443.9 -32.4 Q 440.7 -31.4 436.5 -31.4 L 436.5 -31.4 L 436.5 -31.4 Q 429.8 -31.4 426 -33.5 L 426 -33.5 L 426 -33.5 Q 422.1 -35.6 422.1 -39.1 L 422.1 -39.1 L 422.1 -39.1 Q 422.1 -41.7 424.1 -43.2 L 424.1 -43.2 L 424.1 -43.2 Q 426.1 -44.7 429.2 -44.7 L 429.2 -44.7 L 429.2 -44.7 Q 431.8 -44.7 433.9 -43.6 L 433.9 -43.6 L 433.9 -43.6 Q 435.1 -42.9 435.7 -42 L 435.7 -42 L 435.7 -42 Q 434.2 -40.7 434.2 -38.6 L 434.2 -38.6 L 434.2 -38.6 Q 434.2 -35.8 436.8 -35.8 L 436.8 -35.8 L 436.8 -35.8 Q 441 -35.8 443.4 -45.5 L 443.4 -45.5 L 443.4 -45.5 Q 444.1 -48.4 444.8 -51.5 Z" fill="url(#editing-gradient-gradient)"></path></g></g><style>text {
  font-size: 64px;
  font-family: Arial Black;
  dominant-baseline: central;
  text-anchor: middle;
}</style></svg>